<svg xmlns="http://www.w3.org/2000/svg" width="270" height="78" viewBox="0 0 270 78">
  <g fill="none" fill-rule="evenodd">
    <polygon fill="#06C" points="38.46 43.9 102.25 20.86 103.29 21.74 39.49 45.93"/>
    <polygon fill="#06C" points="38.46 23.04 102.25 0 103.29 .89 39.49 25.08"/>
    <polygon fill="#06C" points="38.46 33.06 102.25 10.02 103.29 10.9 39.49 35.09"/>
    <polygon fill="#06C" points="38.46 27.97 102.25 4.93 103.29 5.81 39.49 30"/>
    <polygon fill="#06C" points="38.46 38.31 102.25 15.27 103.29 16.16 39.49 40.35"/>
    <path fill="#06C" d="M41.07,43.6299988 C39.638705,43.62874 38.4058589,44.638762 38.1254817,46.0423273 C37.8451044,47.4458925 38.5952933,48.8520471 39.917226,49.4007738 C41.2391586,49.9495006 42.7646191,49.4879552 43.5606219,48.2984232 C44.3566247,47.1088912 44.2014483,45.5227089 43.19,44.51 C42.6208304,43.957932 41.8628157,43.6432843 41.07,43.6299988 M42.99,16.95 L74.69,21.19 L50.69,31.09 C52.26,35.09 53.81,39.09 55.42,43.09 C56.122899,44.9641523 56.518002,46.9396675 56.59,48.94 C56.59,49.71 56.59,50.45 56.5,51.21 C56.2427166,53.517008 55.564855,55.7573405 54.5,57.82 L53.62,59.27 C52.3201816,61.1196943 50.7096943,62.7301816 48.86,64.03 L47.4,64.91 C45.3396606,65.9718152 43.1031738,66.6495384 40.8,66.91 L39.01,67 C36.6574069,66.9615877 34.3319859,66.4904018 32.15,65.61 L30.61,64.86 C28.6416671,63.7455559 26.8821231,62.2973158 25.41,60.58 L24.41,59.22 C23.1475158,57.294487 22.2430111,55.1568748 21.74,52.91 L21.48,51.17 C21.2811452,48.8134758 21.5184444,46.4404832 22.18,44.17 L22.78,42.55 C23.7014743,40.4758987 24.9810156,38.580282 26.56,36.95 L27.81,35.81 C30.9702415,33.224797 34.9270601,31.8116476 39.01,31.81 L34.44,20.15 L42.99,16.95 Z"/>
    <path fill="#06C" d="M7.46,31.88 L261.84,31.88 C265.961007,31.8909894 269.299011,35.2289935 269.31,39.35 L269.31,54.28 C269.299011,58.4010065 265.961007,61.7390106 261.84,61.75 L7.46,61.75 C3.34289923,61.7335241 0.0109607147,58.3971191 0,54.28 L0,39.35 C0.0109607147,35.2328809 3.34289923,31.8964759 7.46,31.88"/>
    <path fill="#FFF" fill-rule="nonzero" d="M240.9 54.9L240.9 41.29 242.64 41.29 242.64 43.35C243.268711 42.6473821 244.008559 42.0528011 244.83 41.59 245.528167 41.2287751 246.303948 41.0434114 247.09 41.05 247.831113 41.024189 248.561787 41.2304558 249.18 41.64 249.748836 42.0685479 250.165793 42.6677045 250.37 43.35 250.997818 42.6451028 251.741951 42.0531782 252.57 41.6 253.283546 41.2308142 254.076644 41.0419814 254.88 41.05 255.84156 40.9922565 256.780347 41.3575434 257.45 42.05 258.103139 42.8270933 258.429356 43.8272544 258.36 44.84L258.36 54.91 256.49 54.91 256.49 45.44C256.550906 44.7014703 256.375834 43.9626673 255.99 43.33 255.573898 42.8774996 254.972817 42.6414924 254.36 42.69 253.660586 42.685326 252.97177 42.8609741 252.36 43.2 251.6556 43.6060356 251.026402 44.1303676 250.5 44.75L250.5 54.9 248.7 54.9 248.7 45.44C248.761538 44.6937771 248.582835 43.9474293 248.19 43.31 247.77331 42.8443109 247.162906 42.6001489 246.54 42.65 245.872419 42.651389 245.215802 42.8198405 244.63 43.14 243.916151 43.5532649 243.277177 44.0840536 242.74 44.71L242.74 54.86 240.9 54.9zM232.15 41.29L232.15 54.9 230.43 54.9 230.43 52.84C229.794025 53.5416941 229.043317 54.1300872 228.21 54.58 227.489206 54.939176 226.695323 55.127381 225.89 55.13 224.91708 55.1849054 223.967152 54.8209484 223.28 54.13 222.624195 53.3538984 222.294467 52.3539619 222.36 51.34L222.36 41.29 224.27 41.29 224.27 50.66C224.208364 51.4233779 224.390426 52.1866354 224.79 52.84 225.213021 53.3078896 225.831979 53.5488013 226.46 53.49 227.158058 53.4937782 227.845844 53.3218318 228.46 52.99 229.149018 52.5827155 229.761565 52.0581592 230.27 51.44L230.27 41.29 232.15 41.29zM211.65 54.9L211.65 41.29 213.58 41.29 213.58 54.9 211.65 54.9zM211.49 38.38L211.49 36.08 213.73 36.08 213.73 38.38 211.49 38.38zM202.74 36.08L202.74 50.66C202.74 51.82 202.74 52.66 202.74 53.27 202.74 53.88 202.82 54.4 202.88 54.9L201.47 54.9 201.03 53.19C200.595636 53.7972427 200.027732 54.2967245 199.37 54.65 198.70161 54.9651007 197.968691 55.1192192 197.23 55.1 195.669061 55.1903127 194.166861 54.4917899 193.23 53.24 192.204433 51.7035578 191.709283 49.8739587 191.82 48.03 191.702148 46.1995149 192.202192 44.3824545 193.24 42.87 194.204157 41.6567707 195.691904 40.9798461 197.24 41.05 197.962447 41.032644 198.678712 41.1868636 199.33 41.5 199.92963 41.8070772 200.429187 42.2788811 200.77 42.86L200.77 36.08 202.74 36.08zM200.86 44.7C200.456406 44.0597879 199.912746 43.5195469 199.27 43.12 198.682231 42.7755686 198.011166 42.5991546 197.33 42.61 196.27989 42.5754416 195.291665 43.105802 194.74 44 194.053058 45.1801921 193.729555 46.5368155 193.81 47.9 193.710841 49.3666002 194.033551 50.830939 194.74 52.12 195.352922 53.0517951 196.416618 53.5855492 197.53 53.52 198.19176 53.5270358 198.842519 53.3505002 199.41 53.01 200.00821 52.6269164 200.505525 52.1055935 200.86 51.49L200.86 44.7zM184.2 41.29L184.2 54.9 182.48 54.9 182.48 52.84C181.848896 53.5469064 181.097215 54.1360619 180.26 54.58 179.542726 54.9390424 178.752114 55.1272833 177.95 55.13 176.97647 55.1888388 176.024977 54.8242821 175.34 54.13 174.6795 53.3565333 174.349125 52.3546369 174.42 51.34L174.42 41.29 176.27 41.29 176.27 50.66C176.205373 51.4223014 176.383915 52.1854799 176.78 52.84 177.203021 53.3078896 177.821979 53.5488013 178.45 53.49 179.1477 53.4908248 179.834771 53.3190571 180.45 52.99 181.166029 52.5881766 181.80578 52.0635129 182.34 51.44L182.34 41.29 184.2 41.29zM167.45 53.29L167.45 54.88C167.152816 54.9743893 166.848493 55.0446177 166.54 55.09 166.178955 55.1408219 165.81458 55.1642222 165.45 55.16 164.622982 55.2209654 163.801088 54.9871506 163.13 54.5 162.577488 53.9879274 162.290059 53.2509296 162.35 52.5L162.35 42.92 160.35 42.92 160.35 41.31 162.35 41.31 162.35 36.92 164.35 36.92 164.35 41.31 167.45 41.31 167.45 42.92 164.35 42.92 164.35 51.64C164.27513 52.1690132 164.407707 52.706487 164.72 53.14 165.138491 53.4170982 165.641392 53.5375112 166.14 53.48 166.569496 53.4686728 166.995994 53.4048659 167.41 53.29L167.45 53.29zM144.6 52.59L146.11 51.38C146.571362 52.0526941 147.171498 52.6187312 147.87 53.04 148.514054 53.4024248 149.240978 53.5919074 149.98 53.59 150.700744 53.6274077 151.410816 53.4037348 151.98 52.96 152.467321 52.5444804 152.739552 51.9301221 152.72 51.29 152.72 50.29 151.72 49.44 149.61 48.85L148.53 48.53C147.556799 48.2835926 146.666469 47.7832133 145.95 47.08 145.376551 46.4621572 145.07096 45.6424546 145.1 44.8 145.066965 43.7803358 145.488228 42.7986092 146.25 42.12 147.069832 41.4226734 148.125124 41.0649474 149.2 41.12 151.098838 41.0668628 152.912721 41.9071721 154.1 43.39L152.85 44.64C152.405548 44.045694 151.84399 43.5488008 151.2 43.18 150.627687 42.852171 149.979556 42.6797958 149.32 42.68 148.711453 42.6507508 148.113431 42.8465316 147.64 43.23 147.226586 43.5918209 146.998734 44.1210256 147.02 44.67 147.017895 44.9501463 147.079443 45.227112 147.2 45.48 147.306596 45.7262386 147.484151 45.935127 147.71 46.08 148.431151 46.5002236 149.214122 46.8039625 150.03 46.98 150.58 47.12 151.03 47.25 151.31 47.35 152.266185 47.5952867 153.137417 48.0965906 153.83 48.8 154.368397 49.4505847 154.64948 50.2760436 154.62 51.12 154.669519 52.2706818 154.181813 53.3791041 153.3 54.12 152.286681 54.9010846 151.02778 55.2947128 149.75 55.23 148.711398 55.244024 147.683951 55.014561 146.75 54.56 145.870144 54.0936949 145.128609 53.4038955 144.6 52.56L144.6 52.59zM135.39 54.93L135.39 41.29 137.32 41.29 137.32 54.9 135.39 54.93zM135.27 38.38L135.27 36.08 137.51 36.08 137.51 38.38 135.27 38.38zM128.21 53.26L128.21 54.85C127.912816 54.9443893 127.608493 55.0146177 127.3 55.06 126.935598 55.1107949 126.567901 55.1341938 126.2 55.13 125.373161 55.1892298 124.55185 54.9555812 123.88 54.47 123.327488 53.9579274 123.040059 53.2209296 123.1 52.47L123.1 42.89 121.1 42.89 121.1 41.28 123.1 41.28 123.1 36.89 125.1 36.89 125.1 41.28 128.2 41.28 128.2 42.89 125.1 42.89 125.1 51.61C125.02513 52.1390132 125.157707 52.676487 125.47 53.11 125.889178 53.3855128 126.391497 53.5057863 126.89 53.45 127.319496 53.4386728 127.745994 53.3748659 128.16 53.26L128.21 53.26zM109.39 54.9L109.39 41.29 111.27 41.29 111.27 44.44C111.615671 43.4975257 112.185377 42.6532631 112.93 41.98 113.570578 41.4516024 114.379825 41.1712055 115.21 41.19L115.48 41.19 115.65 41.19 115.65 43.05 115.41 43.05C114.471102 43.0511758 113.576877 43.4510323 112.95 44.15 112.140768 45.0674818 111.561479 46.164361 111.26 47.35L111.26 54.92 109.39 54.9zM98.77 53.06C98.2048054 53.6931367 97.526558 54.2153872 96.77 54.6 96.0486997 54.9315932 95.2638661 55.1022092 94.47 55.1 93.4704481 55.1543152 92.4930252 54.7923068 91.77 54.1 91.0812448 53.3707147 90.7200479 52.391871 90.77 51.39 90.7533583 50.0070028 91.463106 48.7165525 92.64 47.99 94.5744738 46.8834992 96.7026919 46.1571217 98.91 45.85L98.91 44.85C98.9196224 44.2441912 98.6366878 43.6708765 98.15 43.31 97.5735319 42.8832268 96.8661925 42.671025 96.15 42.71 95.4431488 42.6876643 94.7460357 42.8793704 94.15 43.26 93.5578802 43.6535014 93.0869737 44.2040465 92.79 44.85L91.15 43.97C91.5926418 43.068376 92.2873988 42.3145647 93.15 41.8 94.0691978 41.2991327 95.1034414 41.0474667 96.15 41.07 97.3673522 40.9948188 98.5689842 41.3763459 99.52 42.14 100.347495 42.9102538 100.784503 44.0119538 100.71 45.14L100.71 52.74C100.713847 53.0744118 100.73722 53.4083135 100.78 53.74 100.827277 54.0777038 100.897438 54.4118061 100.99 54.74L100.99 54.94 98.91 54.94 98.77 53.06zM98.84 51.33L98.84 47.59C97.1548736 47.8531034 95.5215956 48.3795318 94 49.15 93.1443163 49.5731442 92.5936659 50.4357016 92.57 51.39 92.5442611 51.947284 92.7634564 52.4879657 93.17 52.87 93.6212047 53.2503123 94.2008489 53.4435271 94.79 53.41 95.4389141 53.3926336 96.073852 53.2175966 96.64 52.9 97.4281603 52.4726721 98.1575762 51.9449381 98.81 51.33L98.84 51.33zM80.53 54.9L80.25 53.7C79.6412238 54.1383472 78.9659435 54.4759874 78.25 54.7 77.567067 54.9300704 76.8506283 55.0449709 76.13 55.04 75.1417332 55.1256696 74.1659182 54.7715798 73.462563 54.0720786 72.7592077 53.3725773 72.3997617 52.3987226 72.48 51.41 72.4454522 49.9853459 73.1585509 48.6463894 74.36 47.88 76.1524459 46.8469664 78.1562581 46.2348804 80.22 46.09L80.22 45.04C80.2471552 44.595845 80.0615461 44.165232 79.72 43.88 79.3028404 43.5685826 78.7898749 43.4129241 78.27 43.44 77.6835559 43.432717 77.1039493 43.5664724 76.58 43.83 76.0645785 44.1139744 75.6227918 44.5146647 75.29 45L73.1 43.61C73.6287583 42.762636 74.3745257 42.0721107 75.26 41.61 76.211061 41.1432152 77.2608991 40.9133487 78.32 40.94 79.636485 40.8613892 80.9397887 41.239312 82.01 42.01 82.9060991 42.740102 83.3971285 43.8560779 83.33 45.01L83.33 53.01C83.3126343 53.2630357 83.3126343 53.5169643 83.33 53.77 83.33 54.08 83.41 54.43 83.48 54.85L80.53 54.9zM80.17 48.26C78.9809363 48.3612225 77.8245243 48.7013436 76.77 49.26 76.1018324 49.6480222 75.6961921 50.3674596 75.71 51.14 75.6819595 51.5370467 75.8195138 51.9279905 76.09 52.22 76.385599 52.4844766 76.7739178 52.6211073 77.17 52.6 77.6941454 52.5962653 78.2105494 52.4731491 78.68 52.24 79.2313364 51.9621783 79.7344222 51.5975256 80.17 51.16L80.17 48.26zM59.27 54.9L54.78 41.27 57.98 41.27 60.22 48.62C60.28 48.82 60.37 49.14 60.47 49.62 60.57 50.1 60.69 50.67 60.84 51.42 60.9503323 50.5425111 61.1479787 49.6782267 61.43 48.84 61.43 48.77 61.43 48.7 61.5 48.66L63.74 41.31 66.93 41.31 62.45 54.94 59.27 54.9zM11.11 54.9L11.11 41.27 14.11 41.27 14.11 42.88C14.7672854 42.3120036 15.4928936 41.8282648 16.27 41.44 16.898122 41.1549174 17.5802129 41.0082679 18.27 41.01 19.3468151 40.9300949 20.4019381 41.3418502 21.14 42.13 21.8563725 43.0792955 22.2109211 44.2528514 22.14 45.44L22.14 54.91 18.91 54.91 18.91 46.07C18.9613541 45.4223561 18.8369817 44.7728561 18.55 44.19 18.2829936 43.8037538 17.8272028 43.5930941 17.36 43.64 16.8511239 43.6476788 16.3511137 43.7743937 15.9 44.01 15.3046517 44.3054732 14.755547 44.6861408 14.27 45.14L14.27 54.9 11.11 54.9z"/>
    <path fill="#06C" fill-rule="nonzero" d="M254.18,77.44 L254.18,69.27 L259,69.27 L259,70.04 L255.08,70.04 L255.08,72.77 L257.86,72.77 L257.86,73.53 L255.08,73.53 L255.08,76.66 L259.2,76.66 L259.2,77.44 L254.18,77.44 Z M242.78,77.44 L242.78,69.27 L243.71,69.27 L243.71,76.66 L247.36,76.66 L247.36,77.44 L242.78,77.44 Z M229.45,77.44 L231.97,69.27 L233.34,69.27 L235.86,77.44 L234.86,77.44 L234.12,74.89 L231.12,74.89 L230.4,77.44 L229.45,77.44 Z M231.35,74.14 L233.92,74.14 L232.7,69.88 L232.58,69.88 L231.35,74.14 Z M217.35,77.44 L217.35,69.27 L219.64,69.27 C220.501155,69.2070443 221.362939,69.3835544 222.13,69.78 C222.655105,70.1549784 222.946898,70.7764592 222.9,71.42 C222.918906,71.8986829 222.770388,72.3689887 222.48,72.75 C222.147746,73.1313305 221.703085,73.3974271 221.21,73.51 L223.13,77.44 L222.13,77.44 L220.33,73.73 L218.27,73.73 L218.27,77.44 L217.35,77.44 Z M219.64,70.03 L218.27,70.03 L218.27,72.98 L219.63,72.98 C220.260034,73.02407 220.890694,72.9034519 221.46,72.63 C221.835304,72.3852581 222.049389,71.9570887 222.02,71.51 C222.063074,71.0632079 221.874393,70.6254701 221.52,70.35 C220.945244,70.0961828 220.316284,69.9896376 219.69,70.04 L219.64,70.03 Z M203.72,69.27 L204.61,69.27 L204.61,74.54 C204.600666,74.8176216 204.617407,75.0955065 204.66,75.37 C204.732168,75.8849955 205.059369,76.3287862 205.53,76.55 C206.249345,76.8700262 207.070655,76.8700262 207.79,76.55 C208.09377,76.4057799 208.342808,76.1672648 208.5,75.87 C208.581439,75.7030679 208.635464,75.5241102 208.66,75.34 C208.6875,75.0239304 208.6875,74.7060696 208.66,74.39 L208.66,69.27 L209.56,69.27 L209.56,74.68 C209.615187,75.4721729 209.344243,76.2524902 208.81,76.84 C207.50704,77.8200057 205.71296,77.8200057 204.41,76.84 C203.879837,76.2466143 203.612842,75.4636704 203.67,74.67 L203.72,69.27 Z M193.55,77.44 L193.55,70.05 L191.17,70.05 L191.17,69.27 L196.87,69.27 L196.87,70.05 L194.48,70.05 L194.48,77.44 L193.55,77.44 Z M181.55,77.44 L181.55,69.27 L182.48,69.27 L182.48,76.66 L186.13,76.66 L186.13,77.44 L181.55,77.44 Z M167.87,69.27 L168.76,69.27 L168.76,74.54 C168.73917,74.8162746 168.73917,75.0937254 168.76,75.37 C168.791133,75.5429728 168.844929,75.7110874 168.92,75.87 C169.079981,76.1651475 169.328225,76.4029017 169.63,76.55 C170.349345,76.8700262 171.170655,76.8700262 171.89,76.55 C172.19377,76.4057799 172.442808,76.1672648 172.6,75.87 C172.681439,75.7030679 172.735464,75.5241102 172.76,75.34 C172.804173,75.0253814 172.820903,74.7075173 172.81,74.39 L172.81,69.27 L173.71,69.27 L173.71,74.68 C173.765187,75.4721729 173.494243,76.2524902 172.96,76.84 C171.65704,77.8200057 169.86296,77.8200057 168.56,76.84 C168.029837,76.2466143 167.762842,75.4636704 167.82,74.67 L167.87,69.27 Z M160.95,74.99 C160.823569,75.7239379 160.474451,76.4012269 159.95,76.93 C159.431959,77.3765047 158.763298,77.6089271 158.08,77.58 C157.172096,77.6207796 156.303049,77.2087315 155.76,76.48 C154.66714,74.550679 154.66714,72.189321 155.76,70.26 C156.272963,69.5297526 157.117931,69.1053908 158.01,69.13 C158.682121,69.1007684 159.341228,69.3216584 159.86,69.75 C160.385179,70.2295834 160.736807,70.8695453 160.86,71.57 L160.03,71.79 C159.919735,71.2732264 159.65463,70.8023164 159.27,70.44 C158.949462,70.1136766 158.507205,69.9360489 158.05,69.95 C157.372659,69.9301615 156.737584,70.2783049 156.39,70.86 C155.961746,71.646179 155.760909,72.5360934 155.81,73.43 C155.75847,74.3138458 155.967065,75.1934186 156.41,75.96 C156.768384,76.5317975 157.40574,76.8676498 158.08,76.84 C158.573444,76.8532175 159.051904,76.6697477 159.41,76.33 C159.787044,75.9235234 160.028201,75.4097545 160.1,74.86 L160.95,74.99 Z M140.07,77.44 L140.07,69.27 L144.89,69.27 L144.89,70.04 L140.97,70.04 L140.97,72.77 L143.75,72.77 L143.75,73.53 L140.97,73.53 L140.97,76.66 L145.09,76.66 L145.09,77.44 L140.07,77.44 Z M126.42,77.44 L126.42,69.27 L127.71,69.27 L131.46,75.64 L131.46,69.27 L132.27,69.27 L132.27,77.44 L131.57,77.44 L127.27,70.21 L127.27,77.44 L126.42,77.44 Z M112.77,73.35 C112.711482,72.2570196 113.021349,71.176007 113.65,70.28 C114.218907,69.5591037 115.086661,69.1384873 116.005,69.1384873 C116.923339,69.1384873 117.791093,69.5591037 118.36,70.28 C119.533333,72.1657143 119.533333,74.5542857 118.36,76.44 C117.791093,77.1608963 116.923339,77.5815127 116.005,77.5815127 C115.086661,77.5815127 114.218907,77.1608963 113.65,76.44 C113.021308,75.5402404 112.711549,74.4560861 112.77,73.36 L112.77,73.35 Z M113.69,73.35 C113.639108,74.2350606 113.851359,75.1153801 114.3,75.88 C114.686267,76.4410568 115.323834,76.7761708 116.005,76.7761708 C116.686166,76.7761708 117.323733,76.4410568 117.71,75.88 C118.523603,74.2914485 118.523603,72.4085515 117.71,70.82 C117.329692,70.2503011 116.689975,69.9081894 116.005,69.9081894 C115.320025,69.9081894 114.680308,70.2503011 114.3,70.82 C113.846569,71.5863442 113.634035,72.4713206 113.69,73.36 L113.69,73.35 Z M104.62,77.44 L104.62,69.27 L105.53,69.27 L105.53,77.44 L104.62,77.44 Z M92.17,77.44 L92.17,76.84 L96.27,70.04 L92.53,70.04 L92.53,69.28 L97.35,69.28 L97.35,69.86 L93.27,76.67 L97.38,76.67 L97.38,77.44 L92.17,77.44 Z M79.55,77.44 L82.07,69.27 L83.45,69.27 L85.96,77.44 L84.96,77.44 L84.22,74.89 L81.22,74.89 L80.5,77.44 L79.55,77.44 Z M81.45,74.14 L84.03,74.14 L82.8,69.88 L82.68,69.88 L81.45,74.14 Z M71.72,77.44 L71.72,69.27 L72.63,69.27 L72.63,77.44 L71.72,77.44 Z M64.72,74.99 C64.5935688,75.7239379 64.2444508,76.4012269 63.72,76.93 C63.2045171,77.3741019 62.5398927,77.6063631 61.86,77.58 C60.9486257,77.6241604 60.0750648,77.2117496 59.53,76.48 C58.4371402,74.550679 58.4371402,72.189321 59.53,70.26 C60.0429631,69.5297526 60.8879312,69.1053908 61.78,69.13 C62.4521208,69.1007684 63.111228,69.3216584 63.63,69.75 C64.1551792,70.2295834 64.5068066,70.8695453 64.63,71.57 L63.8,71.79 C63.7216051,71.2648462 63.4843034,70.7762839 63.12,70.39 C62.8018536,70.0662596 62.3637628,69.8888509 61.91,69.9 C61.2316207,69.8758142 60.594478,70.2250912 60.25,70.81 C59.8171695,71.5944474 59.6160327,72.4856917 59.67,73.38 C59.6154435,74.2628489 59.8205458,75.1423552 60.26,75.91 C60.6183838,76.4817975 61.2557399,76.8176498 61.93,76.79 C62.4234435,76.8032175 62.901904,76.6197477 63.26,76.28 C63.6370437,75.8735234 63.8782006,75.3597545 63.95,74.81 L64.72,74.99 Z M45.62,73.35 C45.5614822,72.2570196 45.871349,71.176007 46.5,70.28 C47.0689073,69.5591037 47.9366607,69.1384873 48.855,69.1384873 C49.7733393,69.1384873 50.6410927,69.5591037 51.21,70.28 C52.3833333,72.1657143 52.3833333,74.5542857 51.21,76.44 C50.6410927,77.1608963 49.7733393,77.5815127 48.855,77.5815127 C47.9366607,77.5815127 47.0689073,77.1608963 46.5,76.44 C45.8713079,75.5402404 45.5615495,74.4560861 45.62,73.36 L45.62,73.35 Z M46.53,73.35 C46.4815185,74.2361272 46.6973086,75.1166899 47.15,75.88 C47.5339916,76.4410809 48.170102,76.7765568 48.85,76.7765568 C49.529898,76.7765568 50.1660084,76.4410809 50.55,75.88 C51.3770103,74.2947087 51.3770103,72.4052913 50.55,70.82 C50.1853214,70.2315661 49.5422751,69.8735654 48.85,69.8735654 C48.1577249,69.8735654 47.5146786,70.2315661 47.15,70.82 C46.6930798,71.5852468 46.4770443,72.4702953 46.53,73.36 L46.53,73.35 Z M33.59,75.35 L34.44,75.07 C34.562073,75.5478671 34.8272445,75.9770262 35.2,76.3 C35.9129132,76.8921937 36.9392831,76.9170252 37.68,76.36 C37.9785232,76.1148085 38.1480716,75.7462251 38.14,75.36 C38.1471916,75.1329953 38.1027406,74.9073211 38.01,74.7 C37.9147907,74.5084298 37.7697008,74.3460672 37.59,74.23 C37.1585267,73.9716587 36.6988591,73.7636339 36.22,73.61 L35.69,73.42 C35.1457605,73.2364214 34.6500697,72.9321698 34.24,72.53 C33.9533837,72.1856681 33.80384,71.7477189 33.82,71.3 C33.796424,70.7038394 34.033737,70.1269863 34.47,69.72 C34.952083,69.3051125 35.5746565,69.090432 36.21,69.12 C36.7902059,69.1050586 37.3581498,69.2884939 37.82,69.64 C38.3033082,70.0134358 38.6538641,70.5322586 38.82,71.12 L38,71.36 C37.8993241,70.9314143 37.6646259,70.5460888 37.33,70.26 C37.0019077,69.9974109 36.5898678,69.8624323 36.17,69.88 C35.7866969,69.8602862 35.4105705,69.9892439 35.12,70.24 C34.8486055,70.4993184 34.7058293,70.8654112 34.73,71.24 C34.7255151,71.4282553 34.7703305,71.6144115 34.86,71.78 C34.9647229,71.9590683 35.1041082,72.1154518 35.27,72.24 C35.6620231,72.4799629 36.0817702,72.6713676 36.52,72.81 L37.01,72.98 C37.6175618,73.1826761 38.1690337,73.5252052 38.62,73.98 C38.9320415,74.3737618 39.0886187,74.8684034 39.06,75.37 C39.082786,75.9887144 38.8300792,76.5856886 38.37,77 C37.8602131,77.4382967 37.2014467,77.6638526 36.53,77.63 C35.8775948,77.6535074 35.2363418,77.4561988 34.71,77.07 C34.1665378,76.6656141 33.7726217,76.0923254 33.59,75.44 L33.59,75.35 Z M21.69,75.35 L22.55,75.07 C22.6722235,75.5454171 22.9333317,75.9736346 23.3,76.3 C24.0129132,76.8921937 25.0392831,76.9170252 25.78,76.36 C26.0822627,76.116799 26.2556385,75.7479145 26.25,75.36 C26.2544114,75.1321894 26.206517,74.9064016 26.11,74.7 C26.0188035,74.5088413 25.8770113,74.346299 25.7,74.23 C25.2648041,73.9720471 24.8018712,73.7640627 24.32,73.61 L23.79,73.42 C23.2457605,73.2364214 22.7500697,72.9321698 22.34,72.53 C22.0533837,72.1856681 21.90384,71.7477189 21.92,71.3 C21.896424,70.7038394 22.133737,70.1269863 22.57,69.72 C23.052083,69.3051125 23.6746565,69.090432 24.31,69.12 C24.8902059,69.1050586 25.4581498,69.2884939 25.92,69.64 C26.4065107,70.0104202 26.7578569,70.5304125 26.92,71.12 L26.1,71.36 C26.002683,70.9324334 25.7714684,70.5470757 25.44,70.26 C25.1071388,69.9990905 24.6926454,69.8644688 24.27,69.88 C23.9031169,69.8691077 23.5457547,69.997758 23.27,70.24 C22.9937439,70.4960363 22.8500293,70.8645352 22.88,71.24 C22.8770273,71.4269272 22.9181379,71.611925 23,71.78 C23.1078623,71.9567635 23.2467575,72.1125971 23.41,72.24 C23.8020231,72.4799629 24.2217702,72.6713676 24.66,72.81 L25.15,72.98 C25.7575618,73.1826761 26.3090337,73.5252052 26.76,73.98 C27.0747869,74.3727927 27.2348627,74.8672488 27.21,75.37 C27.2302644,75.9903179 26.9737823,76.5875549 26.51,77 C26.0002131,77.4382967 25.3414467,77.6638526 24.67,77.63 C24.0178018,77.651946 23.3770483,77.4547911 22.85,77.07 C22.2948937,76.6687279 21.8872616,76.0959346 21.69,75.44 L21.69,75.35 Z M9.13,77.35 L11.65,69.18 L13.02,69.18 L15.54,77.35 L14.59,77.35 L13.85,74.8 L10.85,74.8 L10.13,77.35 L9.13,77.35 Z M11.03,74.05 L13.6,74.05 L12.38,69.79 L12.27,69.79 L11.03,74.05 Z"/>
    <path fill="#FFF" d="M41.07,40.2299922 C43.6644186,40.2259557 46.0054362,41.7862178 47.0001463,44.1823764 C47.9948564,46.5785349 47.4470799,49.3380135 45.6125467,51.1725467 C43.7780135,53.0070799 41.0185349,53.5548564 38.6223764,52.5601463 C36.2262178,51.5654362 34.6659557,49.2244186 34.6699922,46.63 C34.6755064,43.0976609 37.5376609,40.2355064 41.07,40.2299922 M44.27,20.54 L61.72,22.88 L47.61,28.69 L47.61,28.69 L46.3,29.16 L51.99,43.66 C54.2911529,48.9539211 53.1662071,55.113501 49.1423306,59.2522596 C45.1184541,63.3910182 38.9929729,64.6888657 33.636388,62.5376096 C28.2798031,60.3863534 24.753515,55.2122622 24.71,49.44 C24.726502,41.5823107 31.0923107,35.216502 38.95,35.2 C40.7997103,35.1970948 42.6316606,35.5607658 44.34,36.27 L38.85,22.27 L42.91,20.99 L42.91,20.99 L44.23,20.57 L44.27,20.54 Z"/>
  </g>
</svg>
